<svg width="18" height="18" viewBox="0 0 18 18" fill="none" xmlns="http://www.w3.org/2000/svg">
<path id="Vector" d="M16.4664 3.2026H15.4078L15.4077 1.64701C15.4077 0.738996 14.6689 0.000159779 13.7608 0.000159779L4.23893 0C3.33092 0 2.59208 0.738796 2.59208 1.64685V3.20261H1.53355C0.687831 3.20261 0 3.89044 0 4.73616V13.2637C0 14.1094 0.687831 14.7972 1.53355 14.7972H2.59208V16.7837C2.59208 17.4543 3.13757 17.9998 3.80814 17.9998H14.1919C14.8625 17.9998 15.4079 17.4543 15.4079 16.7837V14.7972H16.4665C17.3122 14.7972 18 14.1094 18 13.2637V4.73616C17.9997 3.89044 17.3118 3.20228 16.4663 3.20228L16.4664 3.2026ZM3.71721 1.64701C3.71721 1.35925 3.95113 1.125 4.23922 1.125H13.7615C14.0493 1.125 14.2835 1.35924 14.2835 1.64701V3.20277L3.71737 3.20261L3.71721 1.64701ZM14.2825 16.7841C14.2825 16.8325 14.24 16.875 14.1916 16.875H3.8079C3.75949 16.875 3.71699 16.8325 3.71699 16.7841V11.045C3.71699 10.9965 3.75949 10.954 3.8079 10.954H14.1916C14.24 10.954 14.2825 10.9965 14.2825 11.045V14.7975V16.7841ZM16.8748 13.2637C16.8748 13.489 16.6915 13.6723 16.4662 13.6723H15.4077L15.4075 11.0451C15.4075 10.3744 14.862 9.829 14.1915 9.829L3.80776 9.82884C3.13715 9.82884 2.5917 10.3743 2.5917 11.0449L2.59154 13.6724H1.53301C1.30772 13.6724 1.12445 13.4892 1.12445 13.2639V4.73636C1.12445 4.51107 1.30772 4.32781 1.53301 4.32781H16.466C16.6913 4.32781 16.8745 4.51107 16.8745 4.73636L16.8748 13.2637ZM15.4079 6.04714C15.4079 6.35776 15.1562 6.60973 14.8453 6.60973H12.3654C12.0547 6.60973 11.8028 6.35808 11.8028 6.04714C11.8028 5.73621 12.0544 5.48456 12.3654 5.48456H14.8453C15.1559 5.48456 15.4079 5.73653 15.4079 6.04714Z" fill="white"/>
</svg>
