<svg width="14" height="14" viewBox="0 0 14 14" fill="none" xmlns="http://www.w3.org/2000/svg">
<g id="share-svgrepo-com (1) 1" clip-path="url(#clip0_1_189)">
<path id="Vector" d="M11.1525 9.25424C10.5187 9.25424 9.92292 9.50102 9.47468 9.94925C9.35034 10.0736 9.24332 10.2103 9.15078 10.3548L5.05044 7.86586C5.15888 7.59441 5.22034 7.29922 5.22034 6.98956C5.22034 6.6799 5.15888 6.38471 5.05068 6.11325L9.15197 3.64332C9.57339 4.30488 10.3116 4.74576 11.1525 4.74576C12.461 4.74576 13.5254 3.68129 13.5254 2.37288C13.5254 1.06447 12.461 0 11.1525 0C9.84414 0 8.77966 1.06447 8.77966 2.37288C8.77966 2.67092 8.83732 2.95519 8.93793 3.2181L4.83143 5.69136C4.40716 5.04498 3.67678 4.61668 2.84746 4.61668C1.53905 4.61668 0.474579 5.68115 0.474579 6.98956C0.474579 8.29797 1.53905 9.36244 2.84746 9.36244C3.67678 9.36244 4.40692 8.93414 4.83119 8.28776L8.93722 10.78C8.83519 11.0472 8.77966 11.3326 8.77966 11.6271C8.77966 12.2609 9.02644 12.857 9.47468 13.305C9.92292 13.7532 10.5187 14 11.1525 14C11.7863 14 12.3822 13.7532 12.8304 13.305C13.2786 12.857 13.5254 12.2609 13.5254 11.6271C13.5254 10.9933 13.2786 10.3973 12.8304 9.94925C12.3822 9.50102 11.7863 9.25424 11.1525 9.25424Z" fill="white"/>
</g>
<defs>
<clipPath id="clip0_1_189">
<rect width="14" height="14" fill="white"/>
</clipPath>
</defs>
</svg>
