<svg width="54" height="43" viewBox="0 0 54 43" fill="none" xmlns="http://www.w3.org/2000/svg">
<path d="M37.0654 25.2198C41.0342 22.0435 46.3209 20.2263 52.2616 18.9496C51.3743 24.7403 48.9986 29.3798 45.3215 32.9093C41.5519 36.5276 36.3196 39.0694 29.6791 40.4138C30.2796 33.1019 33.0691 28.4181 37.0654 25.2198ZM18.2891 18.4995C18.7632 14.9652 19.351 11.9776 20.5899 9.29893C21.8297 6.61813 23.7585 4.17445 27.0444 1.85613C29.4979 3.80038 31.2553 5.37548 32.6116 7.63895C34.0169 9.9841 35.0548 13.1856 35.7503 18.489C32.1983 19.8565 29.1979 23.2766 27.0669 27.9263C24.9661 23.3561 22.0468 20.1778 18.2891 18.4995ZM41.351 16.3197L40.419 11.9396C41.4683 11.2263 42.8207 10.6031 44.4119 10.0321C45.8174 9.52775 47.3459 9.08533 48.9289 8.65749C48.8711 10.0839 48.7204 11.5808 48.5641 13.1324C48.5378 13.3937 48.5113 13.6566 48.4851 13.921C45.9315 14.435 43.5787 15.2582 41.351 16.3197ZM13.7101 11.9263L12.749 16.3172C10.5273 15.2522 8.15986 14.426 5.63278 13.889C5.62349 13.8053 5.6142 13.7218 5.60493 13.6385C5.41102 11.8951 5.22429 10.2162 5.15885 8.60972C6.75912 9.03917 8.29928 9.4838 9.71234 9.99329C11.3088 10.5689 12.6617 11.1999 13.7101 11.9263ZM24.2816 40.4137C17.6585 39.0693 12.4262 36.5277 8.6565 32.9093C4.97877 29.3791 2.60367 24.7394 1.73238 18.9496C7.65708 20.2263 12.9437 22.0435 16.9126 25.2198C20.9092 28.4184 23.6983 33.1021 24.2816 40.4137Z" stroke="white" stroke-width="3"/>
</svg>
